<?xml version="1.0" standalone="no"?>
<!DOCTYPE svg PUBLIC "-//W3C//DTD SVG 20010904//EN"
 "http://www.w3.org/TR/2001/REC-SVG-20010904/DTD/svg10.dtd">
<svg version="1.0" xmlns="http://www.w3.org/2000/svg"
 width="144.000000pt" height="74.000000pt" viewBox="0 0 144.000000 74.000000"
 preserveAspectRatio="xMidYMid meet">

<g transform="translate(0.000000,74.000000) scale(0.100000,-0.100000)"
fill="#FF0000" stroke="none">
<path d="M10 370 l0 -370 90 0 90 0 0 277 c0 156 4 273 9 268 4 -6 16 -41 25
-80 9 -38 40 -159 68 -268 l51 -198 81 3 81 3 70 267 c39 147 73 270 78 274 4
4 7 -117 7 -269 l0 -277 110 0 110 0 0 93 0 93 61 59 c72 71 58 81 156 -111
l68 -134 137 0 138 0 -109 178 c-59 97 -123 201 -141 230 l-33 54 69 71 c38
40 98 102 134 140 l64 67 -146 0 -147 0 -117 -135 c-64 -74 -120 -135 -125
-135 -5 0 -9 61 -9 135 l0 135 -168 -1 -167 0 -53 -207 c-64 -248 -61 -238
-71 -226 -4 5 -29 95 -56 199 -26 105 -52 200 -56 213 -8 21 -12 22 -154 22
l-145 0 0 -370z"/>
</g>
</svg>
